<svg width="309" height="276" viewBox="0 0 309 276" fill="none" xmlns="http://www.w3.org/2000/svg">
<path d="M32.6456 137.833C32.5844 172.853 45.9059 206.581 69.8987 232.151C93.8915 257.722 126.752 273.213 161.794 275.473C196.835 277.733 231.423 266.591 258.518 244.316C285.613 222.04 303.179 190.304 307.64 155.568C312.102 120.831 303.124 85.7041 282.534 57.3362C261.944 28.9682 231.289 9.49122 196.808 2.8691C162.327 -3.75299 126.612 2.97756 96.9309 21.6909C67.2502 40.4042 45.8346 69.6939 37.0427 103.599L170.702 138.073L32.6456 137.833Z" fill="#FF7A00" fill-opacity="0.47"/>
<path d="M3.27432 104.777C1.42564 113.878 0.415628 123.138 0.257756 132.434L144 135L3.27432 104.777Z" fill="#FF7A00"/>
</svg>
